<svg width="140" height="40" viewBox="0 0 140 40" fill="none" xmlns="http://www.w3.org/2000/svg">
<path d="M0 9.98367C0 4.46984 4.47715 0 10 0C15.5228 0 20 4.46984 20 9.98367C20 15.4975 15.5228 19.9673 10 19.9673C4.47715 19.9673 0 15.4975 0 9.98367Z" fill="#DAECD5"/>
<path opacity="0.55" d="M0 20H20V40H0V20Z" fill="#DAECD5"/>
<rect x="80" width="20" height="20" fill="#DAECD5"/>
<rect opacity="0.55" x="80" y="20" width="20" height="20" fill="#DAECD5"/>
<path d="M60 0L100 40H60V0Z" fill="#DAECD5"/>
<path d="M20 20C20 8.95431 28.9543 0 40 0V20H20Z" fill="#DAECD5"/>
<path opacity="0.55" d="M40 0H60C60 11.0457 51.0457 20 40 20V0Z" fill="#DAECD5"/>
<path d="M20 20H40V40C28.9543 40 20 31.0457 20 20Z" fill="#DAECD5"/>
<path opacity="0.55" d="M40 20C51.0457 20 60 28.9543 60 40H40V20Z" fill="#DAECD5"/>
<path opacity="0.55" d="M100 20C100 17.3736 100.517 14.7728 101.522 12.3463C102.528 9.91982 104.001 7.71504 105.858 5.85786C107.715 4.00069 109.92 2.5275 112.346 1.52241C114.773 0.517315 117.374 -1.14805e-07 120 0L120 20H100Z" fill="#DAECD5"/>
<path opacity="0.55" d="M140 20C140 22.6264 139.483 25.2272 138.478 27.6537C137.472 30.0802 135.999 32.285 134.142 34.1421C132.285 35.9993 130.08 37.4725 127.654 38.4776C125.227 39.4827 122.626 40 120 40L120 20H140Z" fill="#DAECD5"/>
<path d="M120 0H140L120 20V0Z" fill="#DAECD5"/>
<path d="M120 40H100L120 20V40Z" fill="#DAECD5"/>
</svg>
